<svg width="24" height="24" viewBox="0 0 24 24" fill="none" xmlns="http://www.w3.org/2000/svg">
<path d="M1.71809 22.281C1.78775 22.3508 1.87047 22.4061 1.96151 22.4438C2.05256 22.4816 2.15016 22.501 2.24872 22.501C2.34728 22.501 2.44488 22.4816 2.53592 22.4438C2.62697 22.4061 2.70969 22.3508 2.77934 22.281L11.9968 13.0635L21.2181 22.281C21.3588 22.4218 21.5497 22.5008 21.7487 22.5008C21.9477 22.5008 22.1386 22.4218 22.2793 22.281C22.4201 22.1403 22.4991 21.9494 22.4991 21.7504C22.4991 21.5514 22.4201 21.3605 22.2793 21.2198L13.0581 12.0023L22.2756 2.78104C22.4163 2.64031 22.4954 2.44944 22.4954 2.25042C22.4954 2.05139 22.4163 1.86052 22.2756 1.71979C22.1349 1.57906 21.944 1.5 21.745 1.5C21.5459 1.5 21.3551 1.57906 21.2143 1.71979L11.9968 10.941L2.77559 1.72354C2.63212 1.60067 2.44756 1.53647 2.2588 1.54376C2.07005 1.55105 1.89099 1.6293 1.75742 1.76287C1.62385 1.89644 1.5456 2.07549 1.53831 2.26425C1.53102 2.45301 1.59522 2.63757 1.71809 2.78104L10.9356 12.0023L1.71809 21.2235C1.57841 21.3641 1.5 21.5542 1.5 21.7523C1.5 21.9504 1.57841 22.1405 1.71809 22.281Z" fill="black"/>
</svg>
